<svg id="Layer_2" xmlns="http://www.w3.org/2000/svg" xmlns:xlink="http://www.w3.org/1999/xlink" viewBox="0 0 127.5 127.5"><defs><clipPath id="clippath"><rect width="127.5" height="127.5" fill="none" stroke-width="0"/></clipPath></defs><g id="Layer_1-2"><rect width="127.5" height="127.5" fill="#fff" stroke-width="0"/><g clip-path="url(#clippath)"><path d="M66.13,92.06c.95-.74,1.95-1.6,2.95-2.62,1.71-1.76,3.56-4.12,5.14-7.21h5.59c.79,0,1.43-.64,1.43-1.43s-.64-1.43-1.43-1.43h-4.3c1.47-3.72,2.52-8.29,2.67-13.87h7.79c.79,0,1.43-.64,1.43-1.43s-.64-1.43-1.43-1.43h-7.79c-.16-5.57-1.21-10.15-2.69-13.87h4.32c.79,0,1.43-.64,1.43-1.43s-.64-1.43-1.43-1.43h-5.61c-1.58-3.09-3.43-5.45-5.14-7.21-1-1.02-1.99-1.89-2.95-2.63,12.61,3.06,22,14.45,22,27.98s-9.38,24.91-21.98,27.98M60.74,82.23h10.26c-1.09,1.86-2.37,3.56-3.86,5.11-2.39,2.47-4.8,3.97-6.4,4.79v-9.9ZM60.74,65.51h14.59c-.14,5.22-1.11,9.85-2.88,13.87h-11.71v-13.87ZM60.74,48.79h11.68c1.77,4.02,2.75,8.65,2.9,13.87h-14.58v-13.87ZM60.74,36.04c1.59.82,4,2.31,6.38,4.79,1.49,1.54,2.76,3.25,3.85,5.11h-10.23v-9.89ZM57.91,45.94h-10.23c1.09-1.86,2.36-3.57,3.85-5.11,2.38-2.47,4.79-3.97,6.38-4.79v9.89ZM57.91,62.66h-14.58c.15-5.22,1.12-9.85,2.9-13.87h11.68v13.87ZM57.91,79.38h-11.71c-1.77-4.02-2.73-8.65-2.88-13.87h14.59v13.87ZM57.91,92.13c-1.6-.82-4.01-2.31-6.4-4.79-1.49-1.54-2.77-3.25-3.86-5.11h10.26v9.9ZM30.54,64.08c0-13.54,9.39-24.92,22-27.98-.95.74-1.95,1.61-2.95,2.63-1.71,1.75-3.56,4.12-5.14,7.21h-5.61c-.79,0-1.43.64-1.43,1.43s.64,1.43,1.43,1.43h4.32c-1.48,3.72-2.53,8.3-2.69,13.87h-7.79c-.79,0-1.43.64-1.43,1.43s.64,1.43,1.43,1.43h7.79c.15,5.57,1.2,10.15,2.67,13.87h-4.3c-.79,0-1.43.64-1.43,1.43s.64,1.43,1.43,1.43h5.59c1.58,3.09,3.43,5.45,5.14,7.21,1,1.02,1.99,1.89,2.94,2.62-12.6-3.07-21.98-14.45-21.98-27.98M59.33,32.43c-17.45,0-31.64,14.2-31.64,31.65s14.19,31.64,31.64,31.65c17.45,0,31.64-14.2,31.64-31.65s-14.19-31.64-31.64-31.65" fill="#e32028" stroke-width="0"/><path d="M96.78,88.12c4.73-7.25,7.22-15.66,7.22-24.37,0-5.18-.88-10.25-2.61-15.08-.29-.81-1.18-1.23-1.99-.94-.81.29-1.23,1.18-.94,1.99,1.61,4.49,2.43,9.21,2.43,14.03,0,8.33-2.45,16.36-7.1,23.24-.26.38-.33.86-.21,1.3l4.29,14.86-16.82-3.49c-.37-.08-.76-.02-1.09.17-6.25,3.58-13.39,5.48-20.64,5.48-11.57,0-22.65-4.9-30.47-13.3l4.3,1.03c.84.2,1.68-.31,1.88-1.15.2-.84-.31-1.68-1.15-1.88l-8.83-2.12c-.06-.02-.13-.03-.19-.04,0,0-.02,0-.03,0-.05,0-.1,0-.15-.01h-.03s-.1,0-.15,0c0,0-.02,0-.02,0-.22.02-.44.1-.65.22-.01,0-.02.01-.03.02-.02.02-.05.03-.07.05-.01,0-.02.02-.03.03,0,0-.01,0-.02.01,0,0-.01.01-.02.02-.03.03-.07.06-.1.09,0,.01-.02.02-.03.03-.03.03-.06.07-.09.11,0,0-.01.01-.02.02-.03.04-.07.09-.1.14,0,0,0,0,0,0-.06.1-.11.2-.14.31,0,.01,0,.02-.01.04-.01.04-.02.08-.03.12,0,.02,0,.04-.01.05,0,.04-.01.07-.02.11,0,.02,0,.04,0,.06,0,.04,0,.08,0,.12,0,.01,0,.02,0,.03l.22,9.1c.02.85.71,1.52,1.55,1.52.01,0,.03,0,.04,0,.86-.02,1.54-.73,1.52-1.59l-.11-4.61c3.58,3.92,7.86,7.21,12.57,9.63,6.35,3.27,13.22,4.93,20.42,4.93,7.59,0,15.07-1.93,21.67-5.6l18.77,3.9c.53.11,1.09-.07,1.46-.47.37-.4.51-.96.35-1.49l-4.8-16.65Z" fill="#e32028" stroke-width="0"/><path d="M17.77,63.75c0-22.92,18.64-41.56,41.56-41.56,13.09,0,25.48,6.29,33.28,16.67l-4.49-1.25c-.83-.23-1.68.25-1.91,1.08-.23.83.26,1.69,1.08,1.91l8.12,2.25c.49.37,1.18.44,1.74.1.02-.01.03-.02.05-.03.08-.04.15-.09.22-.14.39-.29.61-.74.62-1.23l.09-9.11c0-.86-.68-1.56-1.54-1.57h-.02c-.85,0-1.55.69-1.56,1.54l-.04,4.4c-3.59-4.74-8.12-8.76-13.28-11.75-6.77-3.92-14.5-5.99-22.36-5.99-11.93,0-23.15,4.65-31.59,13.08-8.44,8.44-13.08,19.66-13.08,31.59,0,6.69,1.44,13.13,4.29,19.13.27.56.82.89,1.41.89.22,0,.45-.05.66-.15.78-.37,1.11-1.3.74-2.07-2.65-5.58-3.99-11.57-3.99-17.8" fill="#e32028" stroke-width="0"/></g></g></svg>